<svg width="240" height="240" viewBox="0 0 240 240" fill="none" xmlns="http://www.w3.org/2000/svg">
<rect width="240" height="240" fill="white"/>
<path d="M169.442 147.604C179.95 144.1 193.958 130.092 193.958 123.088C193.958 116.083 183.45 119.583 186.954 109.079C190.458 98.5751 193.958 88.0667 186.954 81.0626C179.95 74.0584 172.946 81.0626 165.942 74.0584C158.937 67.0542 165.942 60.0501 158.937 53.0459C151.933 46.0417 141.425 49.5417 130.921 53.0459C120.417 56.5501 123.912 46.0417 116.908 46.0417C109.904 46.0417 95.8958 60.0501 92.3916 70.5584C88.8875 81.0667 81.8875 74.0584 78.3875 84.5667C75.1375 94.3209 79.125 104.663 70.1708 125.183C65.8958 131.938 61.8583 138.425 58.0916 144.113C41.5166 169.133 46.8708 193.133 46.8708 193.133C46.8708 193.133 70.8708 198.488 95.8916 181.913C101.579 178.146 108.067 174.108 114.821 169.833C135.342 160.875 145.683 164.867 155.437 161.617C165.942 158.113 158.937 151.108 169.442 147.604Z" fill="#5C913B"/>
<path d="M187.721 124.237C187.292 122.937 185.896 122.225 184.596 122.658C171.221 127.05 160.642 125.479 155.425 124.112C167.138 112.175 177.663 99.7708 185.517 88.325C186.292 87.1958 186 85.6542 184.875 84.8792C183.746 84.1 182.204 84.3958 181.433 85.5208C176.925 92.0875 171.421 99.0667 165.275 106.121C165.617 98.7667 165.004 87.3042 159.746 75.9625C159.167 74.7208 157.696 74.1833 156.458 74.7583C155.217 75.3333 154.675 76.8042 155.254 78.0458C162.25 93.1417 160.229 108.946 159.679 112.358C153.975 118.562 147.858 124.746 141.529 130.7C142.179 122.896 141.879 110.192 135.033 100.129C134.271 99 132.733 98.7 131.596 99.4708C130.467 100.242 130.171 101.779 130.942 102.912C139.096 114.908 136.554 132.092 135.85 135.933C125.683 145.1 115.213 153.479 105.308 160.25C111.704 149.942 118.417 133.708 113.642 115.062C113.3 113.737 111.95 112.933 110.629 113.279C109.304 113.621 108.504 114.967 108.846 116.292C115.842 143.612 94.9709 166.237 93.1042 168.192C70.575 182.175 58.2167 186.392 58.075 186.437C56.7792 186.871 56.0792 188.267 56.5125 189.567C56.8584 190.604 57.8209 191.262 58.8584 191.262C59.1167 191.262 59.3792 191.221 59.6375 191.137C60.3042 190.912 76.2875 185.496 105.704 165.987C111.392 162.217 117.238 157.921 123.104 153.279C126 155.054 132.638 158.033 144.613 158.033C147.963 158.033 151.721 157.796 155.933 157.242C157.288 157.062 158.242 155.817 158.063 154.462C157.888 153.108 156.608 152.15 155.283 152.333C139.85 154.383 131.213 151.767 127.296 149.912C135.521 143.167 143.7 135.762 151.458 128.1C154.029 129.008 159.467 130.542 167.021 130.542C172.433 130.542 178.913 129.754 186.154 127.371C187.442 126.933 188.146 125.533 187.721 124.237Z" fill="#679E44"/>
<path d="M98.1375 146.362C100.037 145.987 102.342 145.604 104.846 145.192C120.725 142.554 137.146 139.825 137.146 129.654C137.146 124.483 134.379 121.396 132.558 119.504C133.6 119.187 135.017 118.892 135.996 118.679C140.454 117.733 146.004 116.554 148.425 111.637C149.921 108.6 149.729 104.937 147.829 100.658C149.562 99.3791 154.412 97.8333 157.446 96.8708C164.929 94.4874 172 92.2333 173.942 86.4374C174.621 84.4208 174.871 81.2291 172.237 77.5041C172.204 77.4583 172.154 77.3583 172.121 77.2958C170.058 76.9458 168 76.1124 165.937 74.0541C164.633 72.7499 163.817 71.4458 163.304 70.1416C164.279 72.8291 166.825 78.8666 167.983 80.4999C176.446 92.4666 137.479 91.0583 142.883 102.362C149.304 115.787 130.771 111.554 127.271 116.808C123.767 122.062 131.942 122.646 131.942 129.65C131.942 136.654 108 139.112 97.1333 141.246C75.1791 145.567 46.8666 193.133 46.8666 193.133C46.8666 193.133 48.9833 193.592 52.5458 193.821C61.0958 179.971 82.7833 149.379 98.1375 146.362Z" fill="#3E721D"/>
<path d="M97.1333 141.254C108 139.121 131.942 136.663 131.942 129.658C131.942 122.654 123.771 122.071 127.271 116.817C130.775 111.563 149.304 115.796 142.883 102.371C137.475 91.0667 176.446 92.4751 167.983 80.5084C166.642 78.6126 163.425 70.7792 162.962 69.1376C161.45 63.7751 164.3 58.4126 158.933 53.0501C151.929 46.0459 141.421 49.5459 130.917 53.0501C120.412 56.5542 123.912 46.0417 116.908 46.0417C109.904 46.0417 95.8958 60.0501 92.3916 70.5584C88.8875 81.0667 81.8875 74.0584 78.3875 84.5667C75.1375 94.3209 79.125 104.663 70.1708 125.183C65.8958 131.938 61.8583 138.425 58.0916 144.113C41.5166 169.133 46.8708 193.133 46.8708 193.133C46.8708 193.133 75.1791 145.567 97.1333 141.254Z" fill="#77B255"/>
<path d="M163.333 79.5501C151.987 74.2918 140.521 73.6793 133.167 74.0251C140.221 67.8751 147.196 62.3709 153.767 57.8668C154.896 57.0918 155.183 55.5501 154.408 54.4209C153.633 53.2959 152.092 53.0084 150.967 53.7793C139.521 61.6293 127.117 72.1584 115.179 83.8709C113.808 78.6501 112.237 68.0751 116.633 54.7001C117.062 53.4001 116.354 52.0001 115.054 51.5751C113.762 51.1459 112.358 51.8543 111.929 53.1543C106.237 70.4793 109.637 83.4251 111.196 87.8543C103.533 95.6126 96.1291 103.788 89.3833 112.017C87.5291 108.1 84.9208 99.4626 86.9666 84.0209C87.1458 82.6667 86.1916 81.4209 84.8375 81.2418C83.5041 81.0626 82.2416 82.0084 82.0583 83.3668C79.5041 102.658 83.7541 112.496 86.0208 116.196C81.375 122.063 77.0833 127.908 73.3125 133.596C53.8 163.013 48.3833 178.996 48.1625 179.658C47.7291 180.958 48.4333 182.354 49.7291 182.788C49.9875 182.875 50.25 182.913 50.5125 182.913C51.55 182.913 52.5166 182.258 52.8625 181.221C52.9083 181.079 57.125 168.725 71.1041 146.196C73.0333 144.338 95.6125 123.425 123.004 130.454C124.312 130.783 125.679 129.992 126.017 128.667C126.354 127.342 125.558 125.992 124.229 125.65C105.583 120.883 89.3416 127.6 79.0291 133.996C85.8 124.088 94.1833 113.608 103.354 103.438C107.2 102.733 124.383 100.2 136.375 108.354C136.804 108.642 137.287 108.783 137.762 108.783C138.554 108.783 139.337 108.404 139.812 107.7C140.583 106.571 140.287 105.029 139.158 104.258C129.092 97.4168 116.387 97.1168 108.583 97.7668C114.533 91.4418 120.717 85.3251 126.921 79.6209C130.312 79.0626 146.079 77.0168 161.237 84.0418C161.575 84.2001 161.929 84.2751 162.279 84.2751C163.212 84.2751 164.104 83.7418 164.525 82.8376C165.117 81.5959 164.575 80.1209 163.333 79.5501Z" fill="#A6D388"/>
</svg>
