<svg height="512pt" viewBox="0 0 512 512" width="512pt" xmlns="http://www.w3.org/2000/svg"><path d="m497 0h-160c-8.285156 0-15 6.714844-15 15v45h-245c-8.285156 0-15 6.714844-15 15v47h-47c-8.285156 0-15 6.714844-15 15v360c0 8.285156 6.714844 15 15 15h360c8.285156 0 15-6.714844 15-15v-47h47c8.285156 0 15-6.714844 15-15v-245h45c8.285156 0 15-6.714844 15-15v-160c0-8.285156-6.714844-15-15-15zm-137 482h-330v-330h32v283c0 8.285156 6.714844 15 15 15h283zm62-62h-330v-330h266.359375l-91.960937 91.964844c-5.859376 5.855468-5.859376 15.351562 0 21.210937l42.425781 42.425781c2.929687 2.929688 6.769531 4.394532 10.605469 4.394532 3.839843 0 7.679687-1.464844 10.605468-4.394532l91.964844-91.960937zm60-260h-30v-42.574219c0-6.066406-3.652344-11.535156-9.261719-13.855469-5.601562-2.320312-12.054687-1.039062-16.34375 3.25l-106.964843 106.960938-21.210938-21.210938 106.960938-106.964843c4.289062-4.289063 5.574218-10.742188 3.253906-16.347657-2.324219-5.605468-7.792969-9.257812-13.859375-9.257812h-42.574219v-30h130zm0 0"/></svg>